# Wavefront OBJ file automatically generated by Tiled2Unity

# Vertices (Count = 196)
v -192 -16 0
v -208 -16 0
v -208 0 0
v -192 0 0
v -176 -16 0
v -176 0 0
v -160 -16 0
v -160 0 0
v -144 -16 0
v -144 0 0
v -128 -16 0
v -128 0 0
v -112 -16 0
v -112 0 0
v -96 -16 0
v -96 0 0
v -80 -16 0
v -80 0 0
v -64 -16 0
v -64 0 0
v -48 -16 0
v -48 0 0
v -32 -16 0
v -32 0 0
v -16 -16 0
v -16 0 0
v 0 -16 0
v 0 0 0
v -192 -32 0
v -208 -32 0
v -176 -32 0
v -160 -32 0
v -144 -32 0
v -128 -32 0
v -112 -32 0
v -96 -32 0
v -80 -32 0
v -64 -32 0
v -48 -32 0
v -32 -32 0
v -16 -32 0
v 0 -32 0
v -192 -48 0
v -208 -48 0
v -176 -48 0
v -16 -48 0
v -32 -48 0
v -192 -64 0
v -208 -64 0
v -176 -64 0
v -16 -64 0
v -32 -64 0
v -192 -80 0
v -208 -80 0
v -176 -80 0
v -16 -80 0
v -32 -80 0
v -192 -96 0
v -208 -96 0
v -176 -96 0
v -16 -96 0
v -32 -96 0
v 0 -96 0
v 0 -80 0
v -192 -112 0
v -208 -112 0
v -176 -112 0
v -16 -112 0
v -32 -112 0
v 0 -112 0
v -192 -128 0
v -208 -128 0
v -176 -128 0
v -16 -128 0
v -32 -128 0
v 0 -128 0
v -192 -144 0
v -208 -144 0
v -176 -144 0
v -16 -144 0
v -32 -144 0
v 0 -144 0
v -192 -160 0
v -208 -160 0
v -176 -160 0
v -16 -160 0
v -32 -160 0
v 0 -160 0
v -192 -176 0
v -208 -176 0
v -176 -176 0
v -16 -176 0
v -32 -176 0
v 0 -176 0
v -192 -192 0
v -208 -192 0
v -176 -192 0
v -160 -192 0
v -160 -176 0
v -144 -192 0
v -144 -176 0
v -128 -192 0
v -128 -176 0
v -112 -192 0
v -112 -176 0
v -96 -192 0
v -96 -176 0
v -80 -192 0
v -80 -176 0
v -64 -192 0
v -64 -176 0
v -48 -192 0
v -48 -176 0
v -32 -192 0
v -16 -192 0
v 0 -192 0
v -192 -208 0
v -208 -208 0
v -176 -208 0
v -160 -208 0
v -144 -208 0
v -128 -208 0
v -112 -208 0
v -96 -208 0
v -80 -208 0
v -64 -208 0
v -48 -208 0
v -32 -208 0
v -16 -208 0
v 0 -208 0
v -160 -48 0
v -144 -48 0
v -128 -48 0
v -112 -48 0
v -96 -48 0
v -80 -48 0
v -64 -48 0
v -48 -48 0
v -160 -64 0
v -144 -64 0
v -128 -64 0
v -112 -64 0
v -96 -64 0
v -80 -64 0
v -64 -64 0
v -48 -64 0
v -160 -80 0
v -144 -80 0
v -128 -80 0
v -112 -80 0
v -96 -80 0
v -80 -80 0
v -64 -80 0
v -48 -80 0
v -160 -96 0
v -144 -96 0
v -128 -96 0
v -112 -96 0
v -96 -96 0
v -80 -96 0
v -64 -96 0
v -48 -96 0
v -160 -112 0
v -144 -112 0
v -128 -112 0
v -112 -112 0
v -96 -112 0
v -80 -112 0
v -64 -112 0
v -48 -112 0
v -160 -128 0
v -144 -128 0
v -128 -128 0
v -112 -128 0
v -96 -128 0
v -80 -128 0
v -64 -128 0
v -48 -128 0
v -160 -144 0
v -144 -144 0
v -128 -144 0
v -112 -144 0
v -96 -144 0
v -80 -144 0
v -64 -144 0
v -48 -144 0
v -160 -160 0
v -144 -160 0
v -128 -160 0
v -112 -160 0
v -96 -160 0
v -80 -160 0
v -64 -160 0
v -48 -160 0
v 0 -48 0
v 0 -64 0

# Texture cooridinates (Count = 420)
vt 0.5000041 0.6250076
vt 0.5333292 0.6250076
vt 0.5333292 0.6874924
vt 0.5000041 0.6874924
vt 0.4666707 0.6250076
vt 0.4999959 0.6250076
vt 0.4999959 0.6874924
vt 0.4666707 0.6874924
vt 0.6666707 0.9375076
vt 0.6999959 0.9375076
vt 0.6999959 0.9999924
vt 0.6666707 0.9999924
vt 0.6333374 0.9375076
vt 0.6666626 0.9375076
vt 0.6666626 0.9999924
vt 0.6333374 0.9999924
vt 0.6000041 0.9375076
vt 0.6333293 0.9375076
vt 0.6333293 0.9999924
vt 0.6000041 0.9999924
vt 0.5666707 0.9375076
vt 0.5999959 0.9375076
vt 0.5999959 0.9999924
vt 0.5666707 0.9999924
vt 0.5333374 0.9375076
vt 0.5666626 0.9375076
vt 0.5666626 0.9999924
vt 0.5333374 0.9999924
vt 0.4333374 0.6250076
vt 0.4666626 0.6250076
vt 0.4666626 0.6874924
vt 0.4333374 0.6874924
vt 0.4000041 0.6250076
vt 0.4333293 0.6250076
vt 0.4333293 0.6874924
vt 0.4000041 0.6874924
vt 0.5000041 0.5625076
vt 0.5333292 0.5625076
vt 0.5333292 0.6249924
vt 0.5000041 0.6249924
vt 0.4666707 0.5625076
vt 0.4999959 0.5625076
vt 0.4999959 0.6249924
vt 0.4666707 0.6249924
vt 0.6666707 0.8750076
vt 0.6999959 0.8750076
vt 0.6999959 0.9374924
vt 0.6666707 0.9374924
vt 0.6333374 0.8750076
vt 0.6666626 0.8750076
vt 0.6666626 0.9374924
vt 0.6333374 0.9374924
vt 0.6000041 0.8750076
vt 0.6333293 0.8750076
vt 0.6333293 0.9374924
vt 0.6000041 0.9374924
vt 0.5666707 0.8750076
vt 0.5999959 0.8750076
vt 0.5999959 0.9374924
vt 0.5666707 0.9374924
vt 0.5333374 0.8750076
vt 0.5666626 0.8750076
vt 0.5666626 0.9374924
vt 0.5333374 0.9374924
vt 0.4333374 0.5625076
vt 0.4666626 0.5625076
vt 0.4666626 0.6249924
vt 0.4333374 0.6249924
vt 0.4000041 0.5625076
vt 0.4333293 0.5625076
vt 0.4333293 0.6249924
vt 0.4000041 0.6249924
vt 0.4333374 0.9375076
vt 0.4666626 0.9375076
vt 0.4666626 0.9999924
vt 0.4333374 0.9999924
vt 0.4000041 0.9375076
vt 0.4333293 0.9375076
vt 0.4333293 0.9999924
vt 0.4000041 0.9999924
vt 0.9000041 0.6250076
vt 0.9333293 0.6250076
vt 0.9333293 0.6874924
vt 0.9000041 0.6874924
vt 0.4333374 0.8750076
vt 0.4666626 0.8750076
vt 0.4666626 0.9374924
vt 0.4333374 0.9374924
vt 0.4000041 0.8750076
vt 0.4333293 0.8750076
vt 0.4333293 0.9374924
vt 0.4000041 0.9374924
vt 0.6666626 7.629395E-06
vt 0.6666626 0.06249237
vt 0.6333374 0.06249237
vt 0.6333374 7.629395E-06
vt 0.4333374 0.8125076
vt 0.4666626 0.8125076
vt 0.4666626 0.8749924
vt 0.4333374 0.8749924
vt 0.4000041 0.8125076
vt 0.4333293 0.8125076
vt 0.4333293 0.8749924
vt 0.4000041 0.8749924
vt 0.9000041 0.5000076
vt 0.9333293 0.5000076
vt 0.9333293 0.5624924
vt 0.9000041 0.5624924
vt 0.4333374 0.7500076
vt 0.4666626 0.7500076
vt 0.4666626 0.8124924
vt 0.4333374 0.8124924
vt 0.4000041 0.7500076
vt 0.4333293 0.7500076
vt 0.4333293 0.8124924
vt 0.4000041 0.8124924
vt 0.5000041 0.7500076
vt 0.5333292 0.7500076
vt 0.5333292 0.8124924
vt 0.5000041 0.8124924
vt 0.4666707 0.7500076
vt 0.4999959 0.7500076
vt 0.4999959 0.8124924
vt 0.4666707 0.8124924
vt 0.5000041 0.9375076
vt 0.5333292 0.9375076
vt 0.5333292 0.9999924
vt 0.5000041 0.9999924
vt 0.4666707 0.9375076
vt 0.4999959 0.9375076
vt 0.4999959 0.9999924
vt 0.4666707 0.9999924
vt 0.5000041 0.8750076
vt 0.5333292 0.8750076
vt 0.5333292 0.9374924
vt 0.5000041 0.9374924
vt 0.4666707 0.8750076
vt 0.4999959 0.8750076
vt 0.4999959 0.9374924
vt 0.4666707 0.9374924
vt 0.5000041 0.8125076
vt 0.5333292 0.8125076
vt 0.5333292 0.8749924
vt 0.5000041 0.8749924
vt 0.4666707 0.8125076
vt 0.4999959 0.8125076
vt 0.4999959 0.8749924
vt 0.4666707 0.8749924
vt 0.4333374 0.6875076
vt 0.4666626 0.6875076
vt 0.4666626 0.7499924
vt 0.4333374 0.7499924
vt 0.4000041 0.6875076
vt 0.4333293 0.6875076
vt 0.4333293 0.7499924
vt 0.4000041 0.7499924
vt 0.5000041 0.6875076
vt 0.5333292 0.6875076
vt 0.5333292 0.7499924
vt 0.5000041 0.7499924
vt 0.4666707 0.6875076
vt 0.4999959 0.6875076
vt 0.4999959 0.7499924
vt 0.4666707 0.7499924
vt 0.5000041 0.5000076
vt 0.5333292 0.5000076
vt 0.5333292 0.5624924
vt 0.5000041 0.5624924
vt 0.4666707 0.5000076
vt 0.4999959 0.5000076
vt 0.4999959 0.5624924
vt 0.4666707 0.5624924
vt 0.6666707 0.8125076
vt 0.6999959 0.8125076
vt 0.6999959 0.8749924
vt 0.6666707 0.8749924
vt 0.6333374 0.8125076
vt 0.6666626 0.8125076
vt 0.6666626 0.8749924
vt 0.6333374 0.8749924
vt 0.6000041 0.8125076
vt 0.6333293 0.8125076
vt 0.6333293 0.8749924
vt 0.6000041 0.8749924
vt 0.5666707 0.8125076
vt 0.5999959 0.8125076
vt 0.5999959 0.8749924
vt 0.5666707 0.8749924
vt 0.5333374 0.8125076
vt 0.5666626 0.8125076
vt 0.5666626 0.8749924
vt 0.5333374 0.8749924
vt 0.4333374 0.5000076
vt 0.4666626 0.5000076
vt 0.4666626 0.5624924
vt 0.4333374 0.5624924
vt 0.4000041 0.5000076
vt 0.4333293 0.5000076
vt 0.4333293 0.5624924
vt 0.4000041 0.5624924
vt 0.5000041 0.4375076
vt 0.5333292 0.4375076
vt 0.5333292 0.4999924
vt 0.5000041 0.4999924
vt 0.4666707 0.4375076
vt 0.4999959 0.4375076
vt 0.4999959 0.4999924
vt 0.4666707 0.4999924
vt 0.6666707 0.7500076
vt 0.6999959 0.7500076
vt 0.6999959 0.8124924
vt 0.6666707 0.8124924
vt 0.6333374 0.7500076
vt 0.6666626 0.7500076
vt 0.6666626 0.8124924
vt 0.6333374 0.8124924
vt 0.6000041 0.7500076
vt 0.6333293 0.7500076
vt 0.6333293 0.8124924
vt 0.6000041 0.8124924
vt 0.5666707 0.7500076
vt 0.5999959 0.7500076
vt 0.5999959 0.8124924
vt 0.5666707 0.8124924
vt 0.5333374 0.7500076
vt 0.5666626 0.7500076
vt 0.5666626 0.8124924
vt 0.5333374 0.8124924
vt 0.4333374 0.4375076
vt 0.4666626 0.4375076
vt 0.4666626 0.4999924
vt 0.4333374 0.4999924
vt 0.4000041 0.4375076
vt 0.4333293 0.4375076
vt 0.4333293 0.4999924
vt 0.4000041 0.4999924
vt 0.6562538 0.5000041
vt 0.6874962 0.5000041
vt 0.6874962 0.5333292
vt 0.6562538 0.5333292
vt 0.6562538 0.4000041
vt 0.6874962 0.4000041
vt 0.6874962 0.4333293
vt 0.6562538 0.4333293
vt 0.5937538 0.4583384
vt 0.6249962 0.4583384
vt 0.6249962 0.4999949
vt 0.5937538 0.4999949
vt 0.5625038 0.4583384
vt 0.5937462 0.4583384
vt 0.5937462 0.4999949
vt 0.5625038 0.4999949
vt 0.5937538 0.4166718
vt 0.6249962 0.4166718
vt 0.6249962 0.4583282
vt 0.5937538 0.4583282
vt 0.5625038 0.4166718
vt 0.5937462 0.4166718
vt 0.5937462 0.4583282
vt 0.5625038 0.4583282
vt 0.5937538 0.3437538
vt 0.6249962 0.3437538
vt 0.6249962 0.3749962
vt 0.5937538 0.3749962
vt 0.5625038 0.3437538
vt 0.5937462 0.3437538
vt 0.5937462 0.3749962
vt 0.5625038 0.3749962
vt 0.5937538 0.3125038
vt 0.6249962 0.3125038
vt 0.6249962 0.3437462
vt 0.5937538 0.3437462
vt 0.5625038 0.3125038
vt 0.5937462 0.3125038
vt 0.5937462 0.3437462
vt 0.5625038 0.3437462
vt 0.2812462 0.2187538
vt 0.2812462 0.2499962
vt 0.2500038 0.2499962
vt 0.2500038 0.2187538
vt 0.2812462 0.1875038
vt 0.2812462 0.2187462
vt 0.2500038 0.2187462
vt 0.2500038 0.1875038
vt 0.3124962 0.2187538
vt 0.3124962 0.2499962
vt 0.2812538 0.2499962
vt 0.2812538 0.2187538
vt 0.3124962 0.1875038
vt 0.3124962 0.2187462
vt 0.2812538 0.2187462
vt 0.2812538 0.1875038
vt 0.4687538 0.5937538
vt 0.4999962 0.5937538
vt 0.4999962 0.6249962
vt 0.4687538 0.6249962
vt 0.4375038 0.5937538
vt 0.4687462 0.5937538
vt 0.4687462 0.6249962
vt 0.4375038 0.6249962
vt 0.4062538 0.5937538
vt 0.4374962 0.5937538
vt 0.4374962 0.6249962
vt 0.4062538 0.6249962
vt 0.3750038 0.5937538
vt 0.4062462 0.5937538
vt 0.4062462 0.6249962
vt 0.3750038 0.6249962
vt 0.4687538 0.5625038
vt 0.4999962 0.5625038
vt 0.4999962 0.5937462
vt 0.4687538 0.5937462
vt 0.4375038 0.5625038
vt 0.4687462 0.5625038
vt 0.4687462 0.5937462
vt 0.4375038 0.5937462
vt 0.4062538 0.5625038
vt 0.4374962 0.5625038
vt 0.4374962 0.5937462
vt 0.4062538 0.5937462
vt 0.3750038 0.5625038
vt 0.4062462 0.5625038
vt 0.4062462 0.5937462
vt 0.3750038 0.5937462
vt 0.2812538 0.2812538
vt 0.3124962 0.2812538
vt 0.3124962 0.3124962
vt 0.2812538 0.3124962
vt 0.2500038 0.2812538
vt 0.2812462 0.2812538
vt 0.2812462 0.3124962
vt 0.2500038 0.3124962
vt 0.4687538 0.5312538
vt 0.4999962 0.5312538
vt 0.4999962 0.5624962
vt 0.4687538 0.5624962
vt 0.4375038 0.5312538
vt 0.4687462 0.5312538
vt 0.4687462 0.5624962
vt 0.4375038 0.5624962
vt 0.4062538 0.5312538
vt 0.4374962 0.5312538
vt 0.4374962 0.5624962
vt 0.4062538 0.5624962
vt 0.3750038 0.5312538
vt 0.4062462 0.5312538
vt 0.4062462 0.5624962
vt 0.3750038 0.5624962
vt 0.2812538 0.2500038
vt 0.3124962 0.2500038
vt 0.3124962 0.2812462
vt 0.2812538 0.2812462
vt 0.2500038 0.2500038
vt 0.2812462 0.2500038
vt 0.2812462 0.2812462
vt 0.2500038 0.2812462
vt 0.4687538 0.5000038
vt 0.4999962 0.5000038
vt 0.4999962 0.5312462
vt 0.4687538 0.5312462
vt 0.4375038 0.5000038
vt 0.4687462 0.5000038
vt 0.4687462 0.5312462
vt 0.4375038 0.5312462
vt 0.4062538 0.5000038
vt 0.4374962 0.5000038
vt 0.4374962 0.5312462
vt 0.4062538 0.5312462
vt 0.3750038 0.5000038
vt 0.4062462 0.5000038
vt 0.4062462 0.5312462
vt 0.3750038 0.5312462
vt 0.3437538 0.09375381
vt 0.3749962 0.09375381
vt 0.3749962 0.1249962
vt 0.3437538 0.1249962
vt 0.3125038 0.09375381
vt 0.3437462 0.09375381
vt 0.3437462 0.1249962
vt 0.3125038 0.1249962
vt 0.3437538 0.06250381
vt 0.3749962 0.06250381
vt 0.3749962 0.09374619
vt 0.3437538 0.09374619
vt 0.3125038 0.06250381
vt 0.3437462 0.06250381
vt 0.3437462 0.09374619
vt 0.3125038 0.09374619
vt 0.9062538 0.8437538
vt 0.9374962 0.8437538
vt 0.9374962 0.8749962
vt 0.9062538 0.8749962
vt 0.8750038 0.8437538
vt 0.9062462 0.8437538
vt 0.9062462 0.8749962
vt 0.8750038 0.8749962
vt 0.9062538 0.8125038
vt 0.9374962 0.8125038
vt 0.9374962 0.8437462
vt 0.9062538 0.8437462
vt 0.8750038 0.8125038
vt 0.9062462 0.8125038
vt 0.9062462 0.8437462
vt 0.8750038 0.8437462
vt 0.9062538 0.7812538
vt 0.9374962 0.7812538
vt 0.9374962 0.8124962
vt 0.9062538 0.8124962
vt 0.8750038 0.7812538
vt 0.9062462 0.7812538
vt 0.9062462 0.8124962
vt 0.8750038 0.8124962
vt 0.9062538 0.7500038
vt 0.9374962 0.7500038
vt 0.9374962 0.7812462
vt 0.9062538 0.7812462
vt 0.8750038 0.7500038
vt 0.9062462 0.7500038
vt 0.9062462 0.7812462
vt 0.8750038 0.7812462

# Normal
vn 0 0 -1

# Groups (Count = 4)

g mesh_0001
f 1/1/1 2/2/1 3/3/1 4/4/1
f 5/5/1 1/6/1 4/7/1 6/8/1
f 7/9/1 5/10/1 6/11/1 8/12/1
f 9/13/1 7/14/1 8/15/1 10/16/1
f 11/17/1 9/18/1 10/19/1 12/20/1
f 13/21/1 11/22/1 12/23/1 14/24/1
f 15/25/1 13/26/1 14/27/1 16/28/1
f 17/13/1 15/14/1 16/15/1 18/16/1
f 19/17/1 17/18/1 18/19/1 20/20/1
f 21/21/1 19/22/1 20/23/1 22/24/1
f 23/25/1 21/26/1 22/27/1 24/28/1
f 25/29/1 23/30/1 24/31/1 26/32/1
f 27/33/1 25/34/1 26/35/1 28/36/1
f 29/37/1 30/38/1 2/39/1 1/40/1
f 31/41/1 29/42/1 1/43/1 5/44/1
f 32/45/1 31/46/1 5/47/1 7/48/1
f 33/49/1 32/50/1 7/51/1 9/52/1
f 34/53/1 33/54/1 9/55/1 11/56/1
f 35/57/1 34/58/1 11/59/1 13/60/1
f 36/61/1 35/62/1 13/63/1 15/64/1
f 37/49/1 36/50/1 15/51/1 17/52/1
f 38/53/1 37/54/1 17/55/1 19/56/1
f 39/57/1 38/58/1 19/59/1 21/60/1
f 40/61/1 39/62/1 21/63/1 23/64/1
f 41/65/1 40/66/1 23/67/1 25/68/1
f 42/69/1 41/70/1 25/71/1 27/72/1
f 43/73/1 44/74/1 30/75/1 29/76/1
f 45/77/1 43/78/1 29/79/1 31/80/1
f 46/81/1 47/82/1 40/83/1 41/84/1
f 48/85/1 49/86/1 44/87/1 43/88/1
f 50/89/1 48/90/1 43/91/1 45/92/1
f 51/93/1 52/94/1 47/95/1 46/96/1
f 53/97/1 54/98/1 49/99/1 48/100/1
f 55/101/1 53/102/1 48/103/1 50/104/1
f 56/105/1 57/106/1 52/107/1 51/108/1
f 58/109/1 59/110/1 54/111/1 53/112/1
f 60/113/1 58/114/1 53/115/1 55/116/1
f 61/117/1 62/118/1 57/119/1 56/120/1
f 63/121/1 61/122/1 56/123/1 64/124/1
f 65/73/1 66/74/1 59/75/1 58/76/1
f 67/77/1 65/78/1 58/79/1 60/80/1
f 68/125/1 69/126/1 62/127/1 61/128/1
f 70/129/1 68/130/1 61/131/1 63/132/1
f 71/85/1 72/86/1 66/87/1 65/88/1
f 73/89/1 71/90/1 65/91/1 67/92/1
f 74/133/1 75/134/1 69/135/1 68/136/1
f 76/137/1 74/138/1 68/139/1 70/140/1
f 77/97/1 78/98/1 72/99/1 71/100/1
f 79/101/1 77/102/1 71/103/1 73/104/1
f 80/141/1 81/142/1 75/143/1 74/144/1
f 82/145/1 80/146/1 74/147/1 76/148/1
f 83/109/1 84/110/1 78/111/1 77/112/1
f 85/113/1 83/114/1 77/115/1 79/116/1
f 86/117/1 87/118/1 81/119/1 80/120/1
f 88/121/1 86/122/1 80/123/1 82/124/1
f 89/149/1 90/150/1 84/151/1 83/152/1
f 91/153/1 89/154/1 83/155/1 85/156/1
f 92/157/1 93/158/1 87/159/1 86/160/1
f 94/161/1 92/162/1 86/163/1 88/164/1
f 95/165/1 96/166/1 90/167/1 89/168/1
f 97/169/1 95/170/1 89/171/1 91/172/1
f 98/173/1 97/174/1 91/175/1 99/176/1
f 100/177/1 98/178/1 99/179/1 101/180/1
f 102/181/1 100/182/1 101/183/1 103/184/1
f 104/185/1 102/186/1 103/187/1 105/188/1
f 106/189/1 104/190/1 105/191/1 107/192/1
f 108/177/1 106/178/1 107/179/1 109/180/1
f 110/181/1 108/182/1 109/183/1 111/184/1
f 112/185/1 110/186/1 111/187/1 113/188/1
f 114/189/1 112/190/1 113/191/1 93/192/1
f 115/193/1 114/194/1 93/195/1 92/196/1
f 116/197/1 115/198/1 92/199/1 94/200/1
f 117/201/1 118/202/1 96/203/1 95/204/1
f 119/205/1 117/206/1 95/207/1 97/208/1
f 120/209/1 119/210/1 97/211/1 98/212/1
f 121/213/1 120/214/1 98/215/1 100/216/1
f 122/217/1 121/218/1 100/219/1 102/220/1
f 123/221/1 122/222/1 102/223/1 104/224/1
f 124/225/1 123/226/1 104/227/1 106/228/1
f 125/213/1 124/214/1 106/215/1 108/216/1
f 126/217/1 125/218/1 108/219/1 110/220/1
f 127/221/1 126/222/1 110/223/1 112/224/1
f 128/225/1 127/226/1 112/227/1 114/228/1
f 129/229/1 128/230/1 114/231/1 115/232/1
f 130/233/1 129/234/1 115/235/1 116/236/1

g mesh_0002
f 131/237/1 45/238/1 31/239/1 32/240/1
f 132/241/1 131/242/1 32/243/1 33/244/1
f 133/241/1 132/242/1 33/243/1 34/244/1
f 134/241/1 133/242/1 34/243/1 35/244/1
f 135/237/1 134/238/1 35/239/1 36/240/1
f 136/241/1 135/242/1 36/243/1 37/244/1
f 137/237/1 136/238/1 37/239/1 38/240/1
f 138/237/1 137/238/1 38/239/1 39/240/1
f 47/241/1 138/242/1 39/243/1 40/244/1
f 139/237/1 50/238/1 45/239/1 131/240/1
f 140/237/1 139/238/1 131/239/1 132/240/1
f 141/237/1 140/238/1 132/239/1 133/240/1
f 142/237/1 141/238/1 133/239/1 134/240/1
f 143/241/1 142/242/1 134/243/1 135/244/1
f 144/241/1 143/242/1 135/243/1 136/244/1
f 145/241/1 144/242/1 136/243/1 137/244/1
f 146/241/1 145/242/1 137/243/1 138/244/1
f 52/237/1 146/238/1 138/239/1 47/240/1
f 147/237/1 55/238/1 50/239/1 139/240/1
f 148/241/1 147/242/1 139/243/1 140/244/1
f 149/237/1 148/238/1 140/239/1 141/240/1
f 150/237/1 149/238/1 141/239/1 142/240/1
f 151/241/1 150/242/1 142/243/1 143/244/1
f 152/237/1 151/238/1 143/239/1 144/240/1
f 153/241/1 152/242/1 144/243/1 145/244/1
f 154/241/1 153/242/1 145/243/1 146/244/1
f 57/241/1 154/242/1 146/243/1 52/244/1
f 155/237/1 60/238/1 55/239/1 147/240/1
f 156/241/1 155/242/1 147/243/1 148/244/1
f 157/241/1 156/242/1 148/243/1 149/244/1
f 158/241/1 157/242/1 149/243/1 150/244/1
f 159/241/1 158/242/1 150/243/1 151/244/1
f 160/241/1 159/242/1 151/243/1 152/244/1
f 161/241/1 160/242/1 152/243/1 153/244/1
f 162/241/1 161/242/1 153/243/1 154/244/1
f 62/241/1 162/242/1 154/243/1 57/244/1
f 163/241/1 67/242/1 60/243/1 155/244/1
f 164/237/1 163/238/1 155/239/1 156/240/1
f 165/241/1 164/242/1 156/243/1 157/244/1
f 166/241/1 165/242/1 157/243/1 158/244/1
f 167/241/1 166/242/1 158/243/1 159/244/1
f 168/237/1 167/238/1 159/239/1 160/240/1
f 169/241/1 168/242/1 160/243/1 161/244/1
f 170/237/1 169/238/1 161/239/1 162/240/1
f 69/241/1 170/242/1 162/243/1 62/244/1
f 171/237/1 73/238/1 67/239/1 163/240/1
f 172/241/1 171/242/1 163/243/1 164/244/1
f 173/237/1 172/238/1 164/239/1 165/240/1
f 174/237/1 173/238/1 165/239/1 166/240/1
f 175/241/1 174/242/1 166/243/1 167/244/1
f 176/241/1 175/242/1 167/243/1 168/244/1
f 177/241/1 176/242/1 168/243/1 169/244/1
f 178/241/1 177/242/1 169/243/1 170/244/1
f 75/237/1 178/238/1 170/239/1 69/240/1
f 179/237/1 79/238/1 73/239/1 171/240/1
f 180/237/1 179/238/1 171/239/1 172/240/1
f 181/237/1 180/238/1 172/239/1 173/240/1
f 182/241/1 181/242/1 173/243/1 174/244/1
f 183/241/1 182/242/1 174/243/1 175/244/1
f 184/241/1 183/242/1 175/243/1 176/244/1
f 185/241/1 184/242/1 176/243/1 177/244/1
f 186/237/1 185/238/1 177/239/1 178/240/1
f 81/237/1 186/238/1 178/239/1 75/240/1
f 187/237/1 85/238/1 79/239/1 179/240/1
f 188/241/1 187/242/1 179/243/1 180/244/1
f 189/241/1 188/242/1 180/243/1 181/244/1
f 190/237/1 189/238/1 181/239/1 182/240/1
f 191/241/1 190/242/1 182/243/1 183/244/1
f 192/241/1 191/242/1 183/243/1 184/244/1
f 193/241/1 192/242/1 184/243/1 185/244/1
f 194/237/1 193/238/1 185/239/1 186/240/1
f 87/237/1 194/238/1 186/239/1 81/240/1
f 99/237/1 91/238/1 85/239/1 187/240/1
f 101/241/1 99/242/1 187/243/1 188/244/1
f 103/241/1 101/242/1 188/243/1 189/244/1
f 105/241/1 103/242/1 189/243/1 190/244/1
f 107/241/1 105/242/1 190/243/1 191/244/1
f 109/241/1 107/242/1 191/243/1 192/244/1
f 111/241/1 109/242/1 192/243/1 193/244/1
f 113/237/1 111/238/1 193/239/1 194/240/1
f 93/241/1 113/242/1 194/243/1 87/244/1

g mesh_0003
f 187/245/1 85/246/1 79/247/1 179/248/1
f 188/249/1 187/250/1 179/251/1 180/252/1
f 99/253/1 91/254/1 85/255/1 187/256/1
f 101/257/1 99/258/1 187/259/1 188/260/1

g mesh_0004
f 21/261/1 19/262/1 20/263/1 22/264/1
f 23/265/1 21/266/1 22/267/1 24/268/1
f 39/269/1 38/270/1 19/271/1 21/272/1
f 40/273/1 39/274/1 21/275/1 23/276/1
f 55/277/1 53/278/1 48/279/1 50/280/1
f 147/281/1 55/282/1 50/283/1 139/284/1
f 60/285/1 58/286/1 53/287/1 55/288/1
f 155/289/1 60/290/1 55/291/1 147/292/1

g mesh_0005
f 7/293/1 5/294/1 6/295/1 8/296/1
f 9/297/1 7/298/1 8/299/1 10/300/1
f 11/301/1 9/302/1 10/303/1 12/304/1
f 13/305/1 11/306/1 12/307/1 14/308/1
f 32/309/1 31/310/1 5/311/1 7/312/1
f 33/313/1 32/314/1 7/315/1 9/316/1
f 34/317/1 33/318/1 9/319/1 11/320/1
f 35/321/1 34/322/1 11/323/1 13/324/1
f 36/325/1 35/326/1 13/327/1 15/328/1
f 37/329/1 36/330/1 15/331/1 17/332/1
f 131/333/1 45/334/1 31/335/1 32/336/1
f 132/337/1 131/338/1 32/339/1 33/340/1
f 133/341/1 132/342/1 33/343/1 34/344/1
f 134/345/1 133/346/1 34/347/1 35/348/1
f 135/349/1 134/350/1 35/351/1 36/352/1
f 136/353/1 135/354/1 36/355/1 37/356/1
f 139/357/1 50/358/1 45/359/1 131/360/1
f 140/361/1 139/362/1 131/363/1 132/364/1
f 141/365/1 140/366/1 132/367/1 133/368/1
f 142/369/1 141/370/1 133/371/1 134/372/1
f 191/373/1 190/374/1 182/375/1 183/376/1
f 192/377/1 191/378/1 183/379/1 184/380/1
f 107/381/1 105/382/1 190/383/1 191/384/1
f 109/385/1 107/386/1 191/387/1 192/388/1

g mesh_0006
f 178/389/1 177/390/1 169/391/1 170/392/1
f 75/393/1 178/394/1 170/395/1 69/396/1
f 186/397/1 185/398/1 177/399/1 178/400/1
f 81/401/1 186/402/1 178/403/1 75/404/1
f 194/405/1 193/406/1 185/407/1 186/408/1
f 87/409/1 194/410/1 186/411/1 81/412/1
f 113/413/1 111/414/1 193/415/1 194/416/1
f 93/417/1 113/418/1 194/419/1 87/420/1

g mesh_0007
f 195/137/1 46/138/1 41/139/1 42/140/1
f 196/145/1 51/146/1 46/147/1 195/148/1
f 64/121/1 56/122/1 51/123/1 196/124/1

