# Wavefront OBJ file automatically generated by Tiled2Unity

# Vertices (Count = 196)
v -192 -16 0
v -208 -16 0
v -208 0 0
v -192 0 0
v -176 -16 0
v -176 0 0
v -160 -16 0
v -160 0 0
v -144 -16 0
v -144 0 0
v -128 -16 0
v -128 0 0
v -64 -16 0
v -80 -16 0
v -80 0 0
v -64 0 0
v -48 -16 0
v -48 0 0
v -32 -16 0
v -32 0 0
v -16 -16 0
v -16 0 0
v 0 -16 0
v 0 0 0
v -192 -32 0
v -208 -32 0
v -176 -32 0
v -160 -32 0
v -144 -32 0
v -128 -32 0
v -112 -32 0
v -112 -16 0
v -96 -32 0
v -96 -16 0
v -80 -32 0
v -64 -32 0
v -48 -32 0
v -32 -32 0
v -16 -32 0
v 0 -32 0
v -192 -48 0
v -208 -48 0
v -176 -48 0
v -16 -48 0
v -32 -48 0
v 0 -48 0
v -192 -64 0
v -208 -64 0
v -176 -64 0
v -16 -64 0
v -32 -64 0
v 0 -64 0
v -192 -80 0
v -208 -80 0
v -176 -80 0
v -16 -80 0
v -32 -80 0
v 0 -80 0
v -192 -96 0
v -208 -96 0
v -176 -96 0
v -16 -96 0
v -32 -96 0
v 0 -96 0
v -192 -112 0
v -208 -112 0
v -176 -112 0
v -16 -112 0
v -32 -112 0
v 0 -112 0
v -192 -128 0
v -208 -128 0
v -176 -128 0
v -16 -128 0
v -32 -128 0
v 0 -128 0
v -192 -144 0
v -208 -144 0
v -176 -144 0
v -16 -144 0
v -32 -144 0
v 0 -144 0
v -192 -160 0
v -208 -160 0
v -176 -160 0
v -16 -160 0
v -32 -160 0
v 0 -160 0
v -192 -176 0
v -208 -176 0
v -176 -176 0
v -16 -176 0
v -32 -176 0
v 0 -176 0
v -192 -192 0
v -208 -192 0
v -176 -192 0
v -160 -192 0
v -160 -176 0
v -144 -192 0
v -144 -176 0
v -128 -192 0
v -128 -176 0
v -112 -192 0
v -112 -176 0
v -96 -192 0
v -96 -176 0
v -80 -192 0
v -80 -176 0
v -64 -192 0
v -64 -176 0
v -48 -192 0
v -48 -176 0
v -32 -192 0
v -16 -192 0
v 0 -192 0
v -192 -208 0
v -208 -208 0
v -176 -208 0
v -160 -208 0
v -144 -208 0
v -128 -208 0
v -112 -208 0
v -96 -208 0
v -80 -208 0
v -64 -208 0
v -48 -208 0
v -32 -208 0
v -16 -208 0
v 0 -208 0
v -160 -48 0
v -144 -48 0
v -128 -48 0
v -112 -48 0
v -96 -48 0
v -80 -48 0
v -64 -48 0
v -48 -48 0
v -160 -64 0
v -144 -64 0
v -128 -64 0
v -112 -64 0
v -96 -64 0
v -80 -64 0
v -64 -64 0
v -48 -64 0
v -160 -80 0
v -144 -80 0
v -128 -80 0
v -112 -80 0
v -96 -80 0
v -80 -80 0
v -64 -80 0
v -48 -80 0
v -160 -96 0
v -144 -96 0
v -128 -96 0
v -112 -96 0
v -96 -96 0
v -80 -96 0
v -64 -96 0
v -48 -96 0
v -160 -112 0
v -144 -112 0
v -128 -112 0
v -112 -112 0
v -96 -112 0
v -80 -112 0
v -64 -112 0
v -48 -112 0
v -160 -128 0
v -144 -128 0
v -128 -128 0
v -112 -128 0
v -96 -128 0
v -80 -128 0
v -64 -128 0
v -48 -128 0
v -160 -144 0
v -144 -144 0
v -128 -144 0
v -112 -144 0
v -96 -144 0
v -80 -144 0
v -64 -144 0
v -48 -144 0
v -160 -160 0
v -144 -160 0
v -128 -160 0
v -112 -160 0
v -96 -160 0
v -80 -160 0
v -64 -160 0
v -48 -160 0
v -112 0 0
v -96 0 0

# Texture cooridinates (Count = 344)
vt 0.5000041 0.6250076
vt 0.5333292 0.6250076
vt 0.5333292 0.6874924
vt 0.5000041 0.6874924
vt 0.4666707 0.6250076
vt 0.4999959 0.6250076
vt 0.4999959 0.6874924
vt 0.4666707 0.6874924
vt 0.6000041 0.9375076
vt 0.6333293 0.9375076
vt 0.6333293 0.9999924
vt 0.6000041 0.9999924
vt 0.5666707 0.9375076
vt 0.5999959 0.9375076
vt 0.5999959 0.9999924
vt 0.5666707 0.9999924
vt 0.5333374 0.9375076
vt 0.5666626 0.9375076
vt 0.5666626 0.9999924
vt 0.5333374 0.9999924
vt 0.6666707 0.9375076
vt 0.6999959 0.9375076
vt 0.6999959 0.9999924
vt 0.6666707 0.9999924
vt 0.6333374 0.9375076
vt 0.6666626 0.9375076
vt 0.6666626 0.9999924
vt 0.6333374 0.9999924
vt 0.4333374 0.6250076
vt 0.4666626 0.6250076
vt 0.4666626 0.6874924
vt 0.4333374 0.6874924
vt 0.4000041 0.6250076
vt 0.4333293 0.6250076
vt 0.4333293 0.6874924
vt 0.4000041 0.6874924
vt 0.5000041 0.5625076
vt 0.5333292 0.5625076
vt 0.5333292 0.6249924
vt 0.5000041 0.6249924
vt 0.4666707 0.5625076
vt 0.4999959 0.5625076
vt 0.4999959 0.6249924
vt 0.4666707 0.6249924
vt 0.6000041 0.8750076
vt 0.6333293 0.8750076
vt 0.6333293 0.9374924
vt 0.6000041 0.9374924
vt 0.5666707 0.8750076
vt 0.5999959 0.8750076
vt 0.5999959 0.9374924
vt 0.5666707 0.9374924
vt 0.5333374 0.8750076
vt 0.5666626 0.8750076
vt 0.5666626 0.9374924
vt 0.5333374 0.9374924
vt 0.8666707 0.3750076
vt 0.8999959 0.3750076
vt 0.8999959 0.4374924
vt 0.8666707 0.4374924
vt 0.7666708 0.06250763
vt 0.799996 0.06250763
vt 0.799996 0.1249924
vt 0.7666708 0.1249924
vt 0.8000041 0.3750076
vt 0.8333293 0.3750076
vt 0.8333293 0.4374924
vt 0.8000041 0.4374924
vt 0.6666707 0.8750076
vt 0.6999959 0.8750076
vt 0.6999959 0.9374924
vt 0.6666707 0.9374924
vt 0.6333374 0.8750076
vt 0.6666626 0.8750076
vt 0.6666626 0.9374924
vt 0.6333374 0.9374924
vt 0.4333374 0.5625076
vt 0.4666626 0.5625076
vt 0.4666626 0.6249924
vt 0.4333374 0.6249924
vt 0.4000041 0.5625076
vt 0.4333293 0.5625076
vt 0.4333293 0.6249924
vt 0.4000041 0.6249924
vt 0.4333374 0.9375076
vt 0.4666626 0.9375076
vt 0.4666626 0.9999924
vt 0.4333374 0.9999924
vt 0.4000041 0.9375076
vt 0.4333293 0.9375076
vt 0.4333293 0.9999924
vt 0.4000041 0.9999924
vt 0.5000041 0.9375076
vt 0.5333292 0.9375076
vt 0.5333292 0.9999924
vt 0.5000041 0.9999924
vt 0.4666707 0.9375076
vt 0.4999959 0.9375076
vt 0.4999959 0.9999924
vt 0.4666707 0.9999924
vt 0.4333374 0.8750076
vt 0.4666626 0.8750076
vt 0.4666626 0.9374924
vt 0.4333374 0.9374924
vt 0.4000041 0.8750076
vt 0.4333293 0.8750076
vt 0.4333293 0.9374924
vt 0.4000041 0.9374924
vt 0.5000041 0.8750076
vt 0.5333292 0.8750076
vt 0.5333292 0.9374924
vt 0.5000041 0.9374924
vt 0.4666707 0.8750076
vt 0.4999959 0.8750076
vt 0.4999959 0.9374924
vt 0.4666707 0.9374924
vt 0.4333374 0.8125076
vt 0.4666626 0.8125076
vt 0.4666626 0.8749924
vt 0.4333374 0.8749924
vt 0.4000041 0.8125076
vt 0.4333293 0.8125076
vt 0.4333293 0.8749924
vt 0.4000041 0.8749924
vt 0.5000041 0.8125076
vt 0.5333292 0.8125076
vt 0.5333292 0.8749924
vt 0.5000041 0.8749924
vt 0.4666707 0.8125076
vt 0.4999959 0.8125076
vt 0.4999959 0.8749924
vt 0.4666707 0.8749924
vt 0.4333374 0.7500076
vt 0.4666626 0.7500076
vt 0.4666626 0.8124924
vt 0.4333374 0.8124924
vt 0.4000041 0.7500076
vt 0.4333293 0.7500076
vt 0.4333293 0.8124924
vt 0.4000041 0.8124924
vt 0.5000041 0.7500076
vt 0.5333292 0.7500076
vt 0.5333292 0.8124924
vt 0.5000041 0.8124924
vt 0.4666707 0.7500076
vt 0.4999959 0.7500076
vt 0.4999959 0.8124924
vt 0.4666707 0.8124924
vt 0.4333374 0.6875076
vt 0.4666626 0.6875076
vt 0.4666626 0.7499924
vt 0.4333374 0.7499924
vt 0.4000041 0.6875076
vt 0.4333293 0.6875076
vt 0.4333293 0.7499924
vt 0.4000041 0.7499924
vt 0.5000041 0.6875076
vt 0.5333292 0.6875076
vt 0.5333292 0.7499924
vt 0.5000041 0.7499924
vt 0.4666707 0.6875076
vt 0.4999959 0.6875076
vt 0.4999959 0.7499924
vt 0.4666707 0.7499924
vt 0.5000041 0.5000076
vt 0.5333292 0.5000076
vt 0.5333292 0.5624924
vt 0.5000041 0.5624924
vt 0.4666707 0.5000076
vt 0.4999959 0.5000076
vt 0.4999959 0.5624924
vt 0.4666707 0.5624924
vt 0.6000041 0.8125076
vt 0.6333293 0.8125076
vt 0.6333293 0.8749924
vt 0.6000041 0.8749924
vt 0.5666707 0.8125076
vt 0.5999959 0.8125076
vt 0.5999959 0.8749924
vt 0.5666707 0.8749924
vt 0.6666707 0.8125076
vt 0.6999959 0.8125076
vt 0.6999959 0.8749924
vt 0.6666707 0.8749924
vt 0.6333374 0.8125076
vt 0.6666626 0.8125076
vt 0.6666626 0.8749924
vt 0.6333374 0.8749924
vt 0.5333374 0.8125076
vt 0.5666626 0.8125076
vt 0.5666626 0.8749924
vt 0.5333374 0.8749924
vt 0.4333374 0.5000076
vt 0.4666626 0.5000076
vt 0.4666626 0.5624924
vt 0.4333374 0.5624924
vt 0.4000041 0.5000076
vt 0.4333293 0.5000076
vt 0.4333293 0.5624924
vt 0.4000041 0.5624924
vt 0.5000041 0.4375076
vt 0.5333292 0.4375076
vt 0.5333292 0.4999924
vt 0.5000041 0.4999924
vt 0.4666707 0.4375076
vt 0.4999959 0.4375076
vt 0.4999959 0.4999924
vt 0.4666707 0.4999924
vt 0.6000041 0.7500076
vt 0.6333293 0.7500076
vt 0.6333293 0.8124924
vt 0.6000041 0.8124924
vt 0.5666707 0.7500076
vt 0.5999959 0.7500076
vt 0.5999959 0.8124924
vt 0.5666707 0.8124924
vt 0.6666707 0.7500076
vt 0.6999959 0.7500076
vt 0.6999959 0.8124924
vt 0.6666707 0.8124924
vt 0.6333374 0.7500076
vt 0.6666626 0.7500076
vt 0.6666626 0.8124924
vt 0.6333374 0.8124924
vt 0.5333374 0.7500076
vt 0.5666626 0.7500076
vt 0.5666626 0.8124924
vt 0.5333374 0.8124924
vt 0.4333374 0.4375076
vt 0.4666626 0.4375076
vt 0.4666626 0.4999924
vt 0.4333374 0.4999924
vt 0.4000041 0.4375076
vt 0.4333293 0.4375076
vt 0.4333293 0.4999924
vt 0.4000041 0.4999924
vt 0.6562538 0.3666707
vt 0.6874962 0.3666707
vt 0.6874962 0.3999959
vt 0.6562538 0.3999959
vt 0.6875038 0.4000041
vt 0.7187462 0.4000041
vt 0.7187462 0.4333293
vt 0.6875038 0.4333293
vt 0.6562538 0.5333374
vt 0.6874962 0.5333374
vt 0.6874962 0.5666626
vt 0.6562538 0.5666626
vt 0.6562538 0.4000041
vt 0.6874962 0.4000041
vt 0.6874962 0.4333293
vt 0.6562538 0.4333293
vt 0.6875038 0.5333374
vt 0.7187462 0.5333374
vt 0.7187462 0.5666626
vt 0.6875038 0.5666626
vt 0.6875038 0.3666707
vt 0.7187462 0.3666707
vt 0.7187462 0.3999959
vt 0.6875038 0.3999959
vt 0.6562538 0.5000041
vt 0.6874962 0.5000041
vt 0.6874962 0.5333292
vt 0.6562538 0.5333292
vt 0.6875038 0.5000041
vt 0.7187462 0.5000041
vt 0.7187462 0.5333292
vt 0.6875038 0.5333292
vt 0.4687538 0.2500038
vt 0.4999962 0.2500038
vt 0.4999962 0.2812462
vt 0.4687538 0.2812462
vt 0.4375038 0.2500038
vt 0.4687462 0.2500038
vt 0.4687462 0.2812462
vt 0.4375038 0.2812462
vt 0.3125038 0.2500038
vt 0.3437462 0.2500038
vt 0.3437462 0.2812462
vt 0.3125038 0.2812462
vt 0.8437538 0.7083384
vt 0.8749962 0.7083384
vt 0.8749962 0.7499949
vt 0.8437538 0.7499949
vt 0.8125038 0.7083384
vt 0.8437462 0.7083384
vt 0.8437462 0.7499949
vt 0.8125038 0.7499949
vt 0.8437538 0.6666718
vt 0.8749962 0.6666718
vt 0.8749962 0.7083282
vt 0.8437538 0.7083282
vt 0.8125038 0.6666718
vt 0.8437462 0.6666718
vt 0.8437462 0.7083282
vt 0.8125038 0.7083282
vt 0.7812538 0.9583384
vt 0.8124962 0.9583384
vt 0.8124962 0.9999949
vt 0.7812538 0.9999949
vt 0.7500038 0.9583384
vt 0.7812462 0.9583384
vt 0.7812462 0.9999949
vt 0.7500038 0.9999949
vt 0.7812538 0.9166718
vt 0.8124962 0.9166718
vt 0.8124962 0.9583282
vt 0.7812538 0.9583282
vt 0.7500038 0.9166718
vt 0.7812462 0.9166718
vt 0.7812462 0.9583282
vt 0.7500038 0.9583282
vt 0.03125381 0.6875038
vt 0.06249619 0.6875038
vt 0.06249619 0.7187462
vt 0.03125381 0.7187462
vt 3.814697E-06 0.6875038
vt 0.03124619 0.6875038
vt 0.03124619 0.7187462
vt 3.814697E-06 0.7187462
vt 0.03125381 0.6562538
vt 0.06249619 0.6562538
vt 0.06249619 0.6874962
vt 0.03125381 0.6874962
vt 3.814697E-06 0.6562538
vt 0.03124619 0.6562538
vt 0.03124619 0.6874962
vt 3.814697E-06 0.6874962
vt 0.03125381 0.6250038
vt 0.06249619 0.6250038
vt 0.06249619 0.6562462
vt 0.03125381 0.6562462
vt 3.814697E-06 0.6250038
vt 0.03124619 0.6250038
vt 0.03124619 0.6562462
vt 3.814697E-06 0.6562462
vt 0.03125381 0.7187538
vt 0.06249619 0.7187538
vt 0.06249619 0.7499962
vt 0.03125381 0.7499962
vt 3.814697E-06 0.7187538
vt 0.03124619 0.7187538
vt 0.03124619 0.7499962
vt 3.814697E-06 0.7499962

# Normal
vn 0 0 -1

# Groups (Count = 4)

g mesh_0001
f 1/1/1 2/2/1 3/3/1 4/4/1
f 5/5/1 1/6/1 4/7/1 6/8/1
f 7/9/1 5/10/1 6/11/1 8/12/1
f 9/13/1 7/14/1 8/15/1 10/16/1
f 11/17/1 9/18/1 10/19/1 12/20/1
f 13/21/1 14/22/1 15/23/1 16/24/1
f 17/25/1 13/26/1 16/27/1 18/28/1
f 19/9/1 17/10/1 18/11/1 20/12/1
f 21/29/1 19/30/1 20/31/1 22/32/1
f 23/33/1 21/34/1 22/35/1 24/36/1
f 25/37/1 26/38/1 2/39/1 1/40/1
f 27/41/1 25/42/1 1/43/1 5/44/1
f 28/45/1 27/46/1 5/47/1 7/48/1
f 29/49/1 28/50/1 7/51/1 9/52/1
f 30/53/1 29/54/1 9/55/1 11/56/1
f 31/57/1 30/58/1 11/59/1 32/60/1
f 33/61/1 31/62/1 32/63/1 34/64/1
f 35/65/1 33/66/1 34/67/1 14/68/1
f 36/69/1 35/70/1 14/71/1 13/72/1
f 37/73/1 36/74/1 13/75/1 17/76/1
f 38/45/1 37/46/1 17/47/1 19/48/1
f 39/77/1 38/78/1 19/79/1 21/80/1
f 40/81/1 39/82/1 21/83/1 23/84/1
f 41/85/1 42/86/1 26/87/1 25/88/1
f 43/89/1 41/90/1 25/91/1 27/92/1
f 44/93/1 45/94/1 38/95/1 39/96/1
f 46/97/1 44/98/1 39/99/1 40/100/1
f 47/101/1 48/102/1 42/103/1 41/104/1
f 49/105/1 47/106/1 41/107/1 43/108/1
f 50/109/1 51/110/1 45/111/1 44/112/1
f 52/113/1 50/114/1 44/115/1 46/116/1
f 53/117/1 54/118/1 48/119/1 47/120/1
f 55/121/1 53/122/1 47/123/1 49/124/1
f 56/125/1 57/126/1 51/127/1 50/128/1
f 58/129/1 56/130/1 50/131/1 52/132/1
f 59/133/1 60/134/1 54/135/1 53/136/1
f 61/137/1 59/138/1 53/139/1 55/140/1
f 62/141/1 63/142/1 57/143/1 56/144/1
f 64/145/1 62/146/1 56/147/1 58/148/1
f 65/149/1 66/150/1 60/151/1 59/152/1
f 67/153/1 65/154/1 59/155/1 61/156/1
f 68/157/1 69/158/1 63/159/1 62/160/1
f 70/161/1 68/162/1 62/163/1 64/164/1
f 71/85/1 72/86/1 66/87/1 65/88/1
f 73/89/1 71/90/1 65/91/1 67/92/1
f 74/93/1 75/94/1 69/95/1 68/96/1
f 76/97/1 74/98/1 68/99/1 70/100/1
f 77/101/1 78/102/1 72/103/1 71/104/1
f 79/105/1 77/106/1 71/107/1 73/108/1
f 80/109/1 81/110/1 75/111/1 74/112/1
f 82/113/1 80/114/1 74/115/1 76/116/1
f 83/117/1 84/118/1 78/119/1 77/120/1
f 85/121/1 83/122/1 77/123/1 79/124/1
f 86/125/1 87/126/1 81/127/1 80/128/1
f 88/129/1 86/130/1 80/131/1 82/132/1
f 89/85/1 90/86/1 84/87/1 83/88/1
f 91/89/1 89/90/1 83/91/1 85/92/1
f 92/93/1 93/94/1 87/95/1 86/96/1
f 94/97/1 92/98/1 86/99/1 88/100/1
f 95/165/1 96/166/1 90/167/1 89/168/1
f 97/169/1 95/170/1 89/171/1 91/172/1
f 98/173/1 97/174/1 91/175/1 99/176/1
f 100/177/1 98/178/1 99/179/1 101/180/1
f 102/181/1 100/182/1 101/183/1 103/184/1
f 104/185/1 102/186/1 103/187/1 105/188/1
f 106/173/1 104/174/1 105/175/1 107/176/1
f 108/177/1 106/178/1 107/179/1 109/180/1
f 110/189/1 108/190/1 109/191/1 111/192/1
f 112/185/1 110/186/1 111/187/1 113/188/1
f 114/173/1 112/174/1 113/175/1 93/176/1
f 115/193/1 114/194/1 93/195/1 92/196/1
f 116/197/1 115/198/1 92/199/1 94/200/1
f 117/201/1 118/202/1 96/203/1 95/204/1
f 119/205/1 117/206/1 95/207/1 97/208/1
f 120/209/1 119/210/1 97/211/1 98/212/1
f 121/213/1 120/214/1 98/215/1 100/216/1
f 122/217/1 121/218/1 100/219/1 102/220/1
f 123/221/1 122/222/1 102/223/1 104/224/1
f 124/209/1 123/210/1 104/211/1 106/212/1
f 125/213/1 124/214/1 106/215/1 108/216/1
f 126/225/1 125/226/1 108/227/1 110/228/1
f 127/221/1 126/222/1 110/223/1 112/224/1
f 128/209/1 127/210/1 112/211/1 114/212/1
f 129/229/1 128/230/1 114/231/1 115/232/1
f 130/233/1 129/234/1 115/235/1 116/236/1

g mesh_0002
f 131/237/1 43/238/1 27/239/1 28/240/1
f 132/241/1 131/242/1 28/243/1 29/244/1
f 133/245/1 132/246/1 29/247/1 30/248/1
f 134/249/1 133/250/1 30/251/1 31/252/1
f 135/253/1 134/254/1 31/255/1 33/256/1
f 136/257/1 135/258/1 33/259/1 35/260/1
f 137/237/1 136/238/1 35/239/1 36/240/1
f 138/249/1 137/250/1 36/251/1 37/252/1
f 45/257/1 138/258/1 37/259/1 38/260/1
f 139/241/1 49/242/1 43/243/1 131/244/1
f 140/241/1 139/242/1 131/243/1 132/244/1
f 141/241/1 140/242/1 132/243/1 133/244/1
f 142/257/1 141/258/1 133/259/1 134/260/1
f 143/249/1 142/250/1 134/251/1 135/252/1
f 144/245/1 143/246/1 135/247/1 136/248/1
f 145/257/1 144/258/1 136/259/1 137/260/1
f 146/253/1 145/254/1 137/255/1 138/256/1
f 51/241/1 146/242/1 138/243/1 45/244/1
f 147/245/1 55/246/1 49/247/1 139/248/1
f 148/245/1 147/246/1 139/247/1 140/248/1
f 149/241/1 148/242/1 140/243/1 141/244/1
f 150/261/1 149/262/1 141/263/1 142/264/1
f 151/245/1 150/246/1 142/247/1 143/248/1
f 152/253/1 151/254/1 143/255/1 144/256/1
f 153/245/1 152/246/1 144/247/1 145/248/1
f 154/237/1 153/238/1 145/239/1 146/240/1
f 57/241/1 154/242/1 146/243/1 51/244/1
f 155/245/1 61/246/1 55/247/1 147/248/1
f 156/249/1 155/250/1 147/251/1 148/252/1
f 157/249/1 156/250/1 148/251/1 149/252/1
f 158/265/1 157/266/1 149/267/1 150/268/1
f 159/257/1 158/258/1 150/259/1 151/260/1
f 160/253/1 159/254/1 151/255/1 152/256/1
f 161/253/1 160/254/1 152/255/1 153/256/1
f 162/241/1 161/242/1 153/243/1 154/244/1
f 63/237/1 162/238/1 154/239/1 57/240/1
f 163/257/1 67/258/1 61/259/1 155/260/1
f 164/241/1 163/242/1 155/243/1 156/244/1
f 165/249/1 164/250/1 156/251/1 157/252/1
f 166/237/1 165/238/1 157/239/1 158/240/1
f 167/249/1 166/250/1 158/251/1 159/252/1
f 168/241/1 167/242/1 159/243/1 160/244/1
f 169/257/1 168/258/1 160/259/1 161/260/1
f 170/253/1 169/254/1 161/255/1 162/256/1
f 69/253/1 170/254/1 162/255/1 63/256/1
f 171/265/1 73/266/1 67/267/1 163/268/1
f 172/237/1 171/238/1 163/239/1 164/240/1
f 173/237/1 172/238/1 164/239/1 165/240/1
f 174/245/1 173/246/1 165/247/1 166/248/1
f 175/261/1 174/262/1 166/263/1 167/264/1
f 176/237/1 175/238/1 167/239/1 168/240/1
f 177/241/1 176/242/1 168/243/1 169/244/1
f 178/237/1 177/238/1 169/239/1 170/240/1
f 75/253/1 178/254/1 170/255/1 69/256/1
f 179/241/1 79/242/1 73/243/1 171/244/1
f 180/253/1 179/254/1 171/255/1 172/256/1
f 181/245/1 180/246/1 172/247/1 173/248/1
f 182/265/1 181/266/1 173/267/1 174/268/1
f 183/237/1 182/238/1 174/239/1 175/240/1
f 184/257/1 183/258/1 175/259/1 176/260/1
f 185/237/1 184/238/1 176/239/1 177/240/1
f 186/253/1 185/254/1 177/255/1 178/256/1
f 81/253/1 186/254/1 178/255/1 75/256/1
f 187/241/1 85/242/1 79/243/1 179/244/1
f 188/249/1 187/250/1 179/251/1 180/252/1
f 189/249/1 188/250/1 180/251/1 181/252/1
f 190/257/1 189/258/1 181/259/1 182/260/1
f 191/249/1 190/250/1 182/251/1 183/252/1
f 192/245/1 191/246/1 183/247/1 184/248/1
f 193/261/1 192/262/1 184/263/1 185/264/1
f 194/257/1 193/258/1 185/259/1 186/260/1
f 87/253/1 194/254/1 186/255/1 81/256/1
f 99/261/1 91/262/1 85/263/1 187/264/1
f 101/253/1 99/254/1 187/255/1 188/256/1
f 103/245/1 101/246/1 188/247/1 189/248/1
f 105/257/1 103/258/1 189/259/1 190/260/1
f 107/257/1 105/258/1 190/259/1 191/260/1
f 109/265/1 107/266/1 191/267/1 192/268/1
f 111/257/1 109/258/1 192/259/1 193/260/1
f 113/265/1 111/266/1 193/267/1 194/268/1
f 93/237/1 113/238/1 194/239/1 87/240/1

g mesh_0003
f 134/269/1 133/270/1 30/271/1 31/272/1
f 135/273/1 134/274/1 31/275/1 33/276/1
f 136/277/1 135/278/1 33/279/1 35/280/1

g mesh_0004
f 131/281/1 43/282/1 27/283/1 28/284/1
f 132/285/1 131/286/1 28/287/1 29/288/1
f 139/289/1 49/290/1 43/291/1 131/292/1
f 140/293/1 139/294/1 131/295/1 132/296/1
f 51/297/1 146/298/1 138/299/1 45/300/1
f 50/301/1 51/302/1 45/303/1 44/304/1
f 57/305/1 154/306/1 146/307/1 51/308/1
f 56/309/1 57/310/1 51/311/1 50/312/1
f 186/297/1 185/298/1 177/299/1 178/300/1
f 81/301/1 186/302/1 178/303/1 75/304/1
f 194/305/1 193/306/1 185/307/1 186/308/1
f 87/309/1 194/310/1 186/311/1 81/312/1

g mesh_0005
f 154/313/1 153/314/1 145/315/1 146/316/1
f 57/317/1 154/318/1 146/319/1 51/320/1
f 162/321/1 161/322/1 153/323/1 154/324/1
f 63/325/1 162/326/1 154/327/1 57/328/1
f 170/329/1 169/330/1 161/331/1 162/332/1
f 69/333/1 170/334/1 162/335/1 63/336/1

g mesh_0006
f 32/25/1 11/26/1 12/27/1 195/28/1
f 34/9/1 32/10/1 195/11/1 196/12/1
f 14/13/1 34/14/1 196/15/1 15/16/1

g mesh_0007
f 146/337/1 145/338/1 137/339/1 138/340/1
f 51/341/1 146/342/1 138/343/1 45/344/1

