# Wavefront OBJ file automatically generated by Tiled2Unity

# Vertices (Count = 238)
v -240 -16 0
v -256 -16 0
v -256 0 0
v -240 0 0
v -224 -16 0
v -224 0 0
v -208 -16 0
v -208 0 0
v -192 -16 0
v -192 0 0
v -176 -16 0
v -176 0 0
v -160 -16 0
v -160 0 0
v -144 -16 0
v -144 0 0
v -128 -16 0
v -128 0 0
v -112 -16 0
v -112 0 0
v -96 -16 0
v -96 0 0
v -80 -16 0
v -80 0 0
v -64 -16 0
v -64 0 0
v -48 -16 0
v -48 0 0
v -32 -16 0
v -32 0 0
v -16 -16 0
v -16 0 0
v 0 -16 0
v 0 0 0
v -240 -32 0
v -256 -32 0
v -224 -32 0
v -208 -32 0
v -192 -32 0
v -176 -32 0
v -160 -32 0
v -144 -32 0
v -128 -32 0
v -112 -32 0
v -96 -32 0
v -80 -32 0
v -64 -32 0
v -48 -32 0
v -32 -32 0
v -16 -32 0
v 0 -32 0
v -240 -48 0
v -256 -48 0
v -224 -48 0
v -16 -48 0
v -32 -48 0
v -240 -64 0
v -256 -64 0
v -224 -64 0
v -16 -64 0
v -32 -64 0
v -240 -80 0
v -256 -80 0
v -224 -80 0
v -16 -80 0
v -32 -80 0
v -240 -96 0
v -256 -96 0
v -224 -96 0
v -16 -96 0
v -32 -96 0
v 0 -96 0
v 0 -80 0
v -240 -112 0
v -256 -112 0
v -224 -112 0
v -16 -112 0
v -32 -112 0
v 0 -112 0
v -240 -128 0
v -256 -128 0
v -224 -128 0
v -16 -128 0
v -32 -128 0
v 0 -128 0
v -240 -144 0
v -256 -144 0
v -224 -144 0
v -16 -144 0
v -32 -144 0
v 0 -144 0
v -240 -160 0
v -256 -160 0
v -224 -160 0
v -16 -160 0
v -32 -160 0
v 0 -160 0
v -240 -176 0
v -256 -176 0
v -224 -176 0
v -16 -176 0
v -32 -176 0
v 0 -176 0
v -240 -192 0
v -256 -192 0
v -224 -192 0
v -208 -192 0
v -208 -176 0
v -192 -192 0
v -192 -176 0
v -176 -192 0
v -176 -176 0
v -160 -192 0
v -160 -176 0
v -144 -192 0
v -144 -176 0
v -128 -192 0
v -128 -176 0
v -112 -192 0
v -112 -176 0
v -96 -192 0
v -96 -176 0
v -80 -192 0
v -80 -176 0
v -64 -192 0
v -64 -176 0
v -48 -192 0
v -48 -176 0
v -32 -192 0
v -16 -192 0
v 0 -192 0
v -240 -208 0
v -256 -208 0
v -224 -208 0
v -208 -208 0
v -192 -208 0
v -176 -208 0
v -160 -208 0
v -144 -208 0
v -128 -208 0
v -112 -208 0
v -96 -208 0
v -80 -208 0
v -64 -208 0
v -48 -208 0
v -32 -208 0
v -16 -208 0
v 0 -208 0
v -208 -48 0
v -192 -48 0
v -176 -48 0
v -160 -48 0
v -144 -48 0
v -128 -48 0
v -112 -48 0
v -96 -48 0
v -80 -48 0
v -64 -48 0
v -48 -48 0
v -208 -64 0
v -192 -64 0
v -176 -64 0
v -160 -64 0
v -144 -64 0
v -128 -64 0
v -112 -64 0
v -96 -64 0
v -80 -64 0
v -64 -64 0
v -48 -64 0
v -208 -80 0
v -192 -80 0
v -176 -80 0
v -160 -80 0
v -144 -80 0
v -128 -80 0
v -112 -80 0
v -96 -80 0
v -80 -80 0
v -64 -80 0
v -48 -80 0
v -208 -96 0
v -192 -96 0
v -176 -96 0
v -160 -96 0
v -144 -96 0
v -128 -96 0
v -112 -96 0
v -96 -96 0
v -80 -96 0
v -64 -96 0
v -48 -96 0
v -208 -112 0
v -192 -112 0
v -176 -112 0
v -160 -112 0
v -144 -112 0
v -128 -112 0
v -112 -112 0
v -96 -112 0
v -80 -112 0
v -64 -112 0
v -48 -112 0
v -208 -128 0
v -192 -128 0
v -176 -128 0
v -160 -128 0
v -144 -128 0
v -128 -128 0
v -112 -128 0
v -96 -128 0
v -80 -128 0
v -64 -128 0
v -48 -128 0
v -208 -144 0
v -192 -144 0
v -176 -144 0
v -160 -144 0
v -144 -144 0
v -128 -144 0
v -112 -144 0
v -96 -144 0
v -80 -144 0
v -64 -144 0
v -48 -144 0
v -208 -160 0
v -192 -160 0
v -176 -160 0
v -160 -160 0
v -144 -160 0
v -128 -160 0
v -112 -160 0
v -96 -160 0
v -80 -160 0
v -64 -160 0
v -48 -160 0
v 0 -48 0
v 0 -64 0

# Texture cooridinates (Count = 332)
vt 0.5000041 0.6250076
vt 0.5333292 0.6250076
vt 0.5333292 0.6874924
vt 0.5000041 0.6874924
vt 0.4666707 0.6250076
vt 0.4999959 0.6250076
vt 0.4999959 0.6874924
vt 0.4666707 0.6874924
vt 0.6666707 0.9375076
vt 0.6999959 0.9375076
vt 0.6999959 0.9999924
vt 0.6666707 0.9999924
vt 0.6333374 0.9375076
vt 0.6666626 0.9375076
vt 0.6666626 0.9999924
vt 0.6333374 0.9999924
vt 0.6000041 0.9375076
vt 0.6333293 0.9375076
vt 0.6333293 0.9999924
vt 0.6000041 0.9999924
vt 0.5666707 0.9375076
vt 0.5999959 0.9375076
vt 0.5999959 0.9999924
vt 0.5666707 0.9999924
vt 0.5333374 0.9375076
vt 0.5666626 0.9375076
vt 0.5666626 0.9999924
vt 0.5333374 0.9999924
vt 0.4333374 0.6250076
vt 0.4666626 0.6250076
vt 0.4666626 0.6874924
vt 0.4333374 0.6874924
vt 0.4000041 0.6250076
vt 0.4333293 0.6250076
vt 0.4333293 0.6874924
vt 0.4000041 0.6874924
vt 0.5000041 0.5625076
vt 0.5333292 0.5625076
vt 0.5333292 0.6249924
vt 0.5000041 0.6249924
vt 0.4666707 0.5625076
vt 0.4999959 0.5625076
vt 0.4999959 0.6249924
vt 0.4666707 0.6249924
vt 0.6666707 0.8750076
vt 0.6999959 0.8750076
vt 0.6999959 0.9374924
vt 0.6666707 0.9374924
vt 0.6333374 0.8750076
vt 0.6666626 0.8750076
vt 0.6666626 0.9374924
vt 0.6333374 0.9374924
vt 0.6000041 0.8750076
vt 0.6333293 0.8750076
vt 0.6333293 0.9374924
vt 0.6000041 0.9374924
vt 0.5666707 0.8750076
vt 0.5999959 0.8750076
vt 0.5999959 0.9374924
vt 0.5666707 0.9374924
vt 0.5333374 0.8750076
vt 0.5666626 0.8750076
vt 0.5666626 0.9374924
vt 0.5333374 0.9374924
vt 0.4333374 0.5625076
vt 0.4666626 0.5625076
vt 0.4666626 0.6249924
vt 0.4333374 0.6249924
vt 0.4000041 0.5625076
vt 0.4333293 0.5625076
vt 0.4333293 0.6249924
vt 0.4000041 0.6249924
vt 0.4333374 0.9375076
vt 0.4666626 0.9375076
vt 0.4666626 0.9999924
vt 0.4333374 0.9999924
vt 0.4000041 0.9375076
vt 0.4333293 0.9375076
vt 0.4333293 0.9999924
vt 0.4000041 0.9999924
vt 0.9000041 0.6250076
vt 0.9333293 0.6250076
vt 0.9333293 0.6874924
vt 0.9000041 0.6874924
vt 0.4333374 0.8750076
vt 0.4666626 0.8750076
vt 0.4666626 0.9374924
vt 0.4333374 0.9374924
vt 0.4000041 0.8750076
vt 0.4333293 0.8750076
vt 0.4333293 0.9374924
vt 0.4000041 0.9374924
vt 0.6666626 7.629395E-06
vt 0.6666626 0.06249237
vt 0.6333374 0.06249237
vt 0.6333374 7.629395E-06
vt 0.4333374 0.8125076
vt 0.4666626 0.8125076
vt 0.4666626 0.8749924
vt 0.4333374 0.8749924
vt 0.4000041 0.8125076
vt 0.4333293 0.8125076
vt 0.4333293 0.8749924
vt 0.4000041 0.8749924
vt 0.9000041 0.5000076
vt 0.9333293 0.5000076
vt 0.9333293 0.5624924
vt 0.9000041 0.5624924
vt 0.4333374 0.7500076
vt 0.4666626 0.7500076
vt 0.4666626 0.8124924
vt 0.4333374 0.8124924
vt 0.4000041 0.7500076
vt 0.4333293 0.7500076
vt 0.4333293 0.8124924
vt 0.4000041 0.8124924
vt 0.5000041 0.7500076
vt 0.5333292 0.7500076
vt 0.5333292 0.8124924
vt 0.5000041 0.8124924
vt 0.4666707 0.7500076
vt 0.4999959 0.7500076
vt 0.4999959 0.8124924
vt 0.4666707 0.8124924
vt 0.4333374 0.6875076
vt 0.4666626 0.6875076
vt 0.4666626 0.7499924
vt 0.4333374 0.7499924
vt 0.4000041 0.6875076
vt 0.4333293 0.6875076
vt 0.4333293 0.7499924
vt 0.4000041 0.7499924
vt 0.5000041 0.6875076
vt 0.5333292 0.6875076
vt 0.5333292 0.7499924
vt 0.5000041 0.7499924
vt 0.4666707 0.6875076
vt 0.4999959 0.6875076
vt 0.4999959 0.7499924
vt 0.4666707 0.7499924
vt 0.5000041 0.9375076
vt 0.5333292 0.9375076
vt 0.5333292 0.9999924
vt 0.5000041 0.9999924
vt 0.4666707 0.9375076
vt 0.4999959 0.9375076
vt 0.4999959 0.9999924
vt 0.4666707 0.9999924
vt 0.5000041 0.8750076
vt 0.5333292 0.8750076
vt 0.5333292 0.9374924
vt 0.5000041 0.9374924
vt 0.4666707 0.8750076
vt 0.4999959 0.8750076
vt 0.4999959 0.9374924
vt 0.4666707 0.9374924
vt 0.5000041 0.8125076
vt 0.5333292 0.8125076
vt 0.5333292 0.8749924
vt 0.5000041 0.8749924
vt 0.4666707 0.8125076
vt 0.4999959 0.8125076
vt 0.4999959 0.8749924
vt 0.4666707 0.8749924
vt 0.5000041 0.5000076
vt 0.5333292 0.5000076
vt 0.5333292 0.5624924
vt 0.5000041 0.5624924
vt 0.4666707 0.5000076
vt 0.4999959 0.5000076
vt 0.4999959 0.5624924
vt 0.4666707 0.5624924
vt 0.6666707 0.8125076
vt 0.6999959 0.8125076
vt 0.6999959 0.8749924
vt 0.6666707 0.8749924
vt 0.6333374 0.8125076
vt 0.6666626 0.8125076
vt 0.6666626 0.8749924
vt 0.6333374 0.8749924
vt 0.6000041 0.8125076
vt 0.6333293 0.8125076
vt 0.6333293 0.8749924
vt 0.6000041 0.8749924
vt 0.5666707 0.8125076
vt 0.5999959 0.8125076
vt 0.5999959 0.8749924
vt 0.5666707 0.8749924
vt 0.5333374 0.8125076
vt 0.5666626 0.8125076
vt 0.5666626 0.8749924
vt 0.5333374 0.8749924
vt 0.4333374 0.5000076
vt 0.4666626 0.5000076
vt 0.4666626 0.5624924
vt 0.4333374 0.5624924
vt 0.4000041 0.5000076
vt 0.4333293 0.5000076
vt 0.4333293 0.5624924
vt 0.4000041 0.5624924
vt 0.5000041 0.4375076
vt 0.5333292 0.4375076
vt 0.5333292 0.4999924
vt 0.5000041 0.4999924
vt 0.4666707 0.4375076
vt 0.4999959 0.4375076
vt 0.4999959 0.4999924
vt 0.4666707 0.4999924
vt 0.6666707 0.7500076
vt 0.6999959 0.7500076
vt 0.6999959 0.8124924
vt 0.6666707 0.8124924
vt 0.6333374 0.7500076
vt 0.6666626 0.7500076
vt 0.6666626 0.8124924
vt 0.6333374 0.8124924
vt 0.6000041 0.7500076
vt 0.6333293 0.7500076
vt 0.6333293 0.8124924
vt 0.6000041 0.8124924
vt 0.5666707 0.7500076
vt 0.5999959 0.7500076
vt 0.5999959 0.8124924
vt 0.5666707 0.8124924
vt 0.5333374 0.7500076
vt 0.5666626 0.7500076
vt 0.5666626 0.8124924
vt 0.5333374 0.8124924
vt 0.4333374 0.4375076
vt 0.4666626 0.4375076
vt 0.4666626 0.4999924
vt 0.4333374 0.4999924
vt 0.4000041 0.4375076
vt 0.4333293 0.4375076
vt 0.4333293 0.4999924
vt 0.4000041 0.4999924
vt 0.6562538 0.4000041
vt 0.6874962 0.4000041
vt 0.6874962 0.4333293
vt 0.6562538 0.4333293
vt 0.6562538 0.3666707
vt 0.6874962 0.3666707
vt 0.6874962 0.3999959
vt 0.6562538 0.3999959
vt 0.6562538 0.5333374
vt 0.6874962 0.5333374
vt 0.6874962 0.5666626
vt 0.6562538 0.5666626
vt 0.6875038 0.5333374
vt 0.7187462 0.5333374
vt 0.7187462 0.5666626
vt 0.6875038 0.5666626
vt 0.6875038 0.5000041
vt 0.7187462 0.5000041
vt 0.7187462 0.5333292
vt 0.6875038 0.5333292
vt 0.6875038 0.3666707
vt 0.7187462 0.3666707
vt 0.7187462 0.3999959
vt 0.6875038 0.3999959
vt 0.6562538 0.5000041
vt 0.6874962 0.5000041
vt 0.6874962 0.5333292
vt 0.6562538 0.5333292
vt 0.6875038 0.4000041
vt 0.7187462 0.4000041
vt 0.7187462 0.4333293
vt 0.6875038 0.4333293
vt 0.0333374 0.5000076
vt 0.06666259 0.5000076
vt 0.06666259 0.5624924
vt 0.0333374 0.5624924
vt 0.06667074 0.5625076
vt 0.09999593 0.5625076
vt 0.09999593 0.6249924
vt 0.06667074 0.6249924
vt 4.069011E-06 0.5000076
vt 0.03332926 0.5000076
vt 0.03332926 0.5624924
vt 4.069011E-06 0.5624924
vt 4.069011E-06 0.5625076
vt 0.03332926 0.5625076
vt 0.03332926 0.6249924
vt 4.069011E-06 0.6249924
vt 0.06667074 0.6250076
vt 0.09999593 0.6250076
vt 0.09999593 0.6874924
vt 0.06667074 0.6874924
vt 4.069011E-06 0.6875076
vt 0.03332926 0.6875076
vt 0.03332926 0.7499924
vt 4.069011E-06 0.7499924
vt 0.06667074 0.6875076
vt 0.09999593 0.6875076
vt 0.09999593 0.7499924
vt 0.06667074 0.7499924
vt 0.06667074 0.5000076
vt 0.09999593 0.5000076
vt 0.09999593 0.5624924
vt 0.06667074 0.5624924
vt 4.069011E-06 0.6250076
vt 0.03332926 0.6250076
vt 0.03332926 0.6874924
vt 4.069011E-06 0.6874924
vt 0.0333374 0.5625076
vt 0.06666259 0.5625076
vt 0.06666259 0.6249924
vt 0.0333374 0.6249924
vt 0.0333374 0.6875076
vt 0.06666259 0.6875076
vt 0.06666259 0.7499924
vt 0.0333374 0.7499924
vt 0.0333374 0.6250076
vt 0.06666259 0.6250076
vt 0.06666259 0.6874924
vt 0.0333374 0.6874924
vt 0.7812538 0.1363692
vt 0.8124962 0.1363692
vt 0.8124962 0.1818126
vt 0.7812538 0.1818126
vt 0.7500038 0.1363692
vt 0.7812462 0.1363692
vt 0.7812462 0.1818126
vt 0.7500038 0.1818126
vt 0.7812538 0.09091464
vt 0.8124962 0.09091464
vt 0.8124962 0.1363581
vt 0.7812538 0.1363581
vt 0.7500038 0.09091464
vt 0.7812462 0.09091464
vt 0.7812462 0.1363581
vt 0.7500038 0.1363581

# Normal
vn 0 0 -1

# Groups (Count = 4)

g mesh_0001
f 1/1/1 2/2/1 3/3/1 4/4/1
f 5/5/1 1/6/1 4/7/1 6/8/1
f 7/9/1 5/10/1 6/11/1 8/12/1
f 9/13/1 7/14/1 8/15/1 10/16/1
f 11/17/1 9/18/1 10/19/1 12/20/1
f 13/21/1 11/22/1 12/23/1 14/24/1
f 15/25/1 13/26/1 14/27/1 16/28/1
f 17/25/1 15/26/1 16/27/1 18/28/1
f 19/9/1 17/10/1 18/11/1 20/12/1
f 21/13/1 19/14/1 20/15/1 22/16/1
f 23/17/1 21/18/1 22/19/1 24/20/1
f 25/21/1 23/22/1 24/23/1 26/24/1
f 27/25/1 25/26/1 26/27/1 28/28/1
f 29/17/1 27/18/1 28/19/1 30/20/1
f 31/29/1 29/30/1 30/31/1 32/32/1
f 33/33/1 31/34/1 32/35/1 34/36/1
f 35/37/1 36/38/1 2/39/1 1/40/1
f 37/41/1 35/42/1 1/43/1 5/44/1
f 38/45/1 37/46/1 5/47/1 7/48/1
f 39/49/1 38/50/1 7/51/1 9/52/1
f 40/53/1 39/54/1 9/55/1 11/56/1
f 41/57/1 40/58/1 11/59/1 13/60/1
f 42/61/1 41/62/1 13/63/1 15/64/1
f 43/61/1 42/62/1 15/63/1 17/64/1
f 44/45/1 43/46/1 17/47/1 19/48/1
f 45/49/1 44/50/1 19/51/1 21/52/1
f 46/53/1 45/54/1 21/55/1 23/56/1
f 47/57/1 46/58/1 23/59/1 25/60/1
f 48/61/1 47/62/1 25/63/1 27/64/1
f 49/53/1 48/54/1 27/55/1 29/56/1
f 50/65/1 49/66/1 29/67/1 31/68/1
f 51/69/1 50/70/1 31/71/1 33/72/1
f 52/73/1 53/74/1 36/75/1 35/76/1
f 54/77/1 52/78/1 35/79/1 37/80/1
f 55/81/1 56/82/1 49/83/1 50/84/1
f 57/85/1 58/86/1 53/87/1 52/88/1
f 59/89/1 57/90/1 52/91/1 54/92/1
f 60/93/1 61/94/1 56/95/1 55/96/1
f 62/97/1 63/98/1 58/99/1 57/100/1
f 64/101/1 62/102/1 57/103/1 59/104/1
f 65/105/1 66/106/1 61/107/1 60/108/1
f 67/109/1 68/110/1 63/111/1 62/112/1
f 69/113/1 67/114/1 62/115/1 64/116/1
f 70/117/1 71/118/1 66/119/1 65/120/1
f 72/121/1 70/122/1 65/123/1 73/124/1
f 74/125/1 75/126/1 68/127/1 67/128/1
f 76/129/1 74/130/1 67/131/1 69/132/1
f 77/133/1 78/134/1 71/135/1 70/136/1
f 79/137/1 77/138/1 70/139/1 72/140/1
f 80/73/1 81/74/1 75/75/1 74/76/1
f 82/77/1 80/78/1 74/79/1 76/80/1
f 83/141/1 84/142/1 78/143/1 77/144/1
f 85/145/1 83/146/1 77/147/1 79/148/1
f 86/85/1 87/86/1 81/87/1 80/88/1
f 88/89/1 86/90/1 80/91/1 82/92/1
f 89/149/1 90/150/1 84/151/1 83/152/1
f 91/153/1 89/154/1 83/155/1 85/156/1
f 92/97/1 93/98/1 87/99/1 86/100/1
f 94/101/1 92/102/1 86/103/1 88/104/1
f 95/157/1 96/158/1 90/159/1 89/160/1
f 97/161/1 95/162/1 89/163/1 91/164/1
f 98/73/1 99/74/1 93/75/1 92/76/1
f 100/77/1 98/78/1 92/79/1 94/80/1
f 101/141/1 102/142/1 96/143/1 95/144/1
f 103/145/1 101/146/1 95/147/1 97/148/1
f 104/165/1 105/166/1 99/167/1 98/168/1
f 106/169/1 104/170/1 98/171/1 100/172/1
f 107/173/1 106/174/1 100/175/1 108/176/1
f 109/177/1 107/178/1 108/179/1 110/180/1
f 111/181/1 109/182/1 110/183/1 112/184/1
f 113/185/1 111/186/1 112/187/1 114/188/1
f 115/189/1 113/190/1 114/191/1 116/192/1
f 117/173/1 115/174/1 116/175/1 118/176/1
f 119/177/1 117/178/1 118/179/1 120/180/1
f 121/181/1 119/182/1 120/183/1 122/184/1
f 123/185/1 121/186/1 122/187/1 124/188/1
f 125/181/1 123/182/1 124/183/1 126/184/1
f 127/185/1 125/186/1 126/187/1 128/188/1
f 129/189/1 127/190/1 128/191/1 102/192/1
f 130/193/1 129/194/1 102/195/1 101/196/1
f 131/197/1 130/198/1 101/199/1 103/200/1
f 132/201/1 133/202/1 105/203/1 104/204/1
f 134/205/1 132/206/1 104/207/1 106/208/1
f 135/209/1 134/210/1 106/211/1 107/212/1
f 136/213/1 135/214/1 107/215/1 109/216/1
f 137/217/1 136/218/1 109/219/1 111/220/1
f 138/221/1 137/222/1 111/223/1 113/224/1
f 139/225/1 138/226/1 113/227/1 115/228/1
f 140/209/1 139/210/1 115/211/1 117/212/1
f 141/213/1 140/214/1 117/215/1 119/216/1
f 142/217/1 141/218/1 119/219/1 121/220/1
f 143/221/1 142/222/1 121/223/1 123/224/1
f 144/217/1 143/218/1 123/219/1 125/220/1
f 145/221/1 144/222/1 125/223/1 127/224/1
f 146/225/1 145/226/1 127/227/1 129/228/1
f 147/229/1 146/230/1 129/231/1 130/232/1
f 148/233/1 147/234/1 130/235/1 131/236/1

g mesh_0002
f 149/237/1 54/238/1 37/239/1 38/240/1
f 150/241/1 149/242/1 38/243/1 39/244/1
f 151/245/1 150/246/1 39/247/1 40/248/1
f 152/249/1 151/250/1 40/251/1 41/252/1
f 153/253/1 152/254/1 41/255/1 42/256/1
f 154/245/1 153/246/1 42/247/1 43/248/1
f 155/237/1 154/238/1 43/239/1 44/240/1
f 156/249/1 155/250/1 44/251/1 45/252/1
f 157/257/1 156/258/1 45/259/1 46/260/1
f 158/241/1 157/242/1 46/243/1 47/244/1
f 159/237/1 158/238/1 47/239/1 48/240/1
f 56/257/1 159/258/1 48/259/1 49/260/1
f 160/253/1 59/254/1 54/255/1 149/256/1
f 161/253/1 160/254/1 149/255/1 150/256/1
f 162/261/1 161/262/1 150/263/1 151/264/1
f 163/261/1 162/262/1 151/263/1 152/264/1
f 164/245/1 163/246/1 152/247/1 153/248/1
f 165/265/1 164/266/1 153/267/1 154/268/1
f 166/257/1 165/258/1 154/259/1 155/260/1
f 167/237/1 166/238/1 155/239/1 156/240/1
f 168/245/1 167/246/1 156/247/1 157/248/1
f 169/257/1 168/258/1 157/259/1 158/260/1
f 170/249/1 169/250/1 158/251/1 159/252/1
f 61/265/1 170/266/1 159/267/1 56/268/1
f 171/257/1 64/258/1 59/259/1 160/260/1
f 172/241/1 171/242/1 160/243/1 161/244/1
f 173/245/1 172/246/1 161/247/1 162/248/1
f 174/261/1 173/262/1 162/263/1 163/264/1
f 175/245/1 174/246/1 163/247/1 164/248/1
f 176/265/1 175/266/1 164/267/1 165/268/1
f 177/261/1 176/262/1 165/263/1 166/264/1
f 178/245/1 177/246/1 166/247/1 167/248/1
f 179/249/1 178/250/1 167/251/1 168/252/1
f 180/245/1 179/246/1 168/247/1 169/248/1
f 181/241/1 180/242/1 169/243/1 170/244/1
f 66/265/1 181/266/1 170/267/1 61/268/1
f 182/265/1 69/266/1 64/267/1 171/268/1
f 183/237/1 182/238/1 171/239/1 172/240/1
f 184/253/1 183/254/1 172/255/1 173/256/1
f 185/249/1 184/250/1 173/251/1 174/252/1
f 186/237/1 185/238/1 174/239/1 175/240/1
f 187/237/1 186/238/1 175/239/1 176/240/1
f 188/253/1 187/254/1 176/255/1 177/256/1
f 189/257/1 188/258/1 177/259/1 178/260/1
f 190/249/1 189/250/1 178/251/1 179/252/1
f 191/249/1 190/250/1 179/251/1 180/252/1
f 192/265/1 191/266/1 180/267/1 181/268/1
f 71/241/1 192/242/1 181/243/1 66/244/1
f 193/245/1 76/246/1 69/247/1 182/248/1
f 194/257/1 193/258/1 182/259/1 183/260/1
f 195/245/1 194/246/1 183/247/1 184/248/1
f 196/237/1 195/238/1 184/239/1 185/240/1
f 197/257/1 196/258/1 185/259/1 186/260/1
f 198/237/1 197/238/1 186/239/1 187/240/1
f 199/241/1 198/242/1 187/243/1 188/244/1
f 200/237/1 199/238/1 188/239/1 189/240/1
f 201/265/1 200/266/1 189/267/1 190/268/1
f 202/257/1 201/258/1 190/259/1 191/260/1
f 203/249/1 202/250/1 191/251/1 192/252/1
f 78/249/1 203/250/1 192/251/1 71/252/1
f 204/245/1 82/246/1 76/247/1 193/248/1
f 205/265/1 204/266/1 193/267/1 194/268/1
f 206/261/1 205/262/1 194/263/1 195/264/1
f 207/261/1 206/262/1 195/263/1 196/264/1
f 208/261/1 207/262/1 196/263/1 197/264/1
f 209/241/1 208/242/1 197/243/1 198/244/1
f 210/245/1 209/246/1 198/247/1 199/248/1
f 211/261/1 210/262/1 199/263/1 200/264/1
f 212/241/1 211/242/1 200/243/1 201/244/1
f 213/265/1 212/266/1 201/267/1 202/268/1
f 214/241/1 213/242/1 202/243/1 203/244/1
f 84/249/1 214/250/1 203/251/1 78/252/1
f 215/237/1 88/238/1 82/239/1 204/240/1
f 216/253/1 215/254/1 204/255/1 205/256/1
f 217/237/1 216/238/1 205/239/1 206/240/1
f 218/265/1 217/266/1 206/267/1 207/268/1
f 219/249/1 218/250/1 207/251/1 208/252/1
f 220/245/1 219/246/1 208/247/1 209/248/1
f 221/253/1 220/254/1 209/255/1 210/256/1
f 222/245/1 221/246/1 210/247/1 211/248/1
f 223/265/1 222/266/1 211/267/1 212/268/1
f 224/249/1 223/250/1 212/251/1 213/252/1
f 225/245/1 224/246/1 213/247/1 214/248/1
f 90/237/1 225/238/1 214/239/1 84/240/1
f 226/245/1 94/246/1 88/247/1 215/248/1
f 227/265/1 226/266/1 215/267/1 216/268/1
f 228/253/1 227/254/1 216/255/1 217/256/1
f 229/265/1 228/266/1 217/267/1 218/268/1
f 230/237/1 229/238/1 218/239/1 219/240/1
f 231/237/1 230/238/1 219/239/1 220/240/1
f 232/257/1 231/258/1 220/259/1 221/260/1
f 233/237/1 232/238/1 221/239/1 222/240/1
f 234/249/1 233/250/1 222/251/1 223/252/1
f 235/245/1 234/246/1 223/247/1 224/248/1
f 236/261/1 235/262/1 224/263/1 225/264/1
f 96/241/1 236/242/1 225/243/1 90/244/1
f 108/249/1 100/250/1 94/251/1 226/252/1
f 110/253/1 108/254/1 226/255/1 227/256/1
f 112/241/1 110/242/1 227/243/1 228/244/1
f 114/261/1 112/262/1 228/263/1 229/264/1
f 116/249/1 114/250/1 229/251/1 230/252/1
f 118/245/1 116/246/1 230/247/1 231/248/1
f 120/257/1 118/258/1 231/259/1 232/260/1
f 122/245/1 120/246/1 232/247/1 233/248/1
f 124/261/1 122/262/1 233/263/1 234/264/1
f 126/241/1 124/242/1 234/243/1 235/244/1
f 128/257/1 126/258/1 235/259/1 236/260/1
f 102/237/1 128/238/1 236/239/1 96/240/1

g mesh_0003
f 149/269/1 54/270/1 37/271/1 38/272/1
f 150/273/1 149/274/1 38/275/1 39/276/1
f 151/277/1 150/278/1 39/279/1 40/280/1
f 152/281/1 151/282/1 40/283/1 41/284/1
f 153/285/1 152/286/1 41/287/1 42/288/1
f 154/285/1 153/286/1 42/287/1 43/288/1
f 155/289/1 154/290/1 43/291/1 44/292/1
f 156/289/1 155/290/1 44/291/1 45/292/1
f 157/293/1 156/294/1 45/295/1 46/296/1
f 158/297/1 157/298/1 46/299/1 47/300/1
f 159/297/1 158/298/1 47/299/1 48/300/1
f 56/297/1 159/298/1 48/299/1 49/300/1
f 160/277/1 59/278/1 54/279/1 149/280/1
f 161/285/1 160/286/1 149/287/1 150/288/1
f 162/285/1 161/286/1 150/287/1 151/288/1
f 163/301/1 162/302/1 151/303/1 152/304/1
f 164/293/1 163/294/1 152/295/1 153/296/1
f 165/285/1 164/286/1 153/287/1 154/288/1
f 166/281/1 165/282/1 154/283/1 155/284/1
f 167/305/1 166/306/1 155/307/1 156/308/1
f 168/281/1 167/282/1 156/283/1 157/284/1
f 169/289/1 168/290/1 157/291/1 158/292/1
f 170/281/1 169/282/1 158/283/1 159/284/1
f 61/309/1 170/310/1 159/311/1 56/312/1
f 171/309/1 64/310/1 59/311/1 160/312/1
f 172/297/1 171/298/1 160/299/1 161/300/1
f 173/301/1 172/302/1 161/303/1 162/304/1
f 174/297/1 173/298/1 162/299/1 163/300/1
f 175/273/1 174/274/1 163/275/1 164/276/1
f 176/313/1 175/314/1 164/315/1 165/316/1
f 177/269/1 176/270/1 165/271/1 166/272/1
f 178/305/1 177/306/1 166/307/1 167/308/1
f 179/273/1 178/274/1 167/275/1 168/276/1
f 180/301/1 179/302/1 168/303/1 169/304/1
f 181/313/1 180/314/1 169/315/1 170/316/1
f 66/301/1 181/302/1 170/303/1 61/304/1
f 182/293/1 69/294/1 64/295/1 171/296/1
f 183/289/1 182/290/1 171/291/1 172/292/1
f 184/277/1 183/278/1 172/279/1 173/280/1
f 185/297/1 184/298/1 173/299/1 174/300/1
f 186/309/1 185/310/1 174/311/1 175/312/1
f 187/309/1 186/310/1 175/311/1 176/312/1
f 188/277/1 187/278/1 176/279/1 177/280/1
f 189/309/1 188/310/1 177/311/1 178/312/1
f 190/289/1 189/290/1 178/291/1 179/292/1
f 191/301/1 190/302/1 179/303/1 180/304/1
f 192/281/1 191/282/1 180/283/1 181/284/1
f 71/293/1 192/294/1 181/295/1 66/296/1
f 193/277/1 76/278/1 69/279/1 182/280/1
f 194/285/1 193/286/1 182/287/1 183/288/1
f 195/277/1 194/278/1 183/279/1 184/280/1
f 196/269/1 195/270/1 184/271/1 185/272/1
f 197/289/1 196/290/1 185/291/1 186/292/1
f 198/273/1 197/274/1 186/275/1 187/276/1
f 199/301/1 198/302/1 187/303/1 188/304/1
f 200/285/1 199/286/1 188/287/1 189/288/1
f 201/281/1 200/282/1 189/283/1 190/284/1
f 202/293/1 201/294/1 190/295/1 191/296/1
f 203/309/1 202/310/1 191/311/1 192/312/1
f 78/309/1 203/310/1 192/311/1 71/312/1
f 204/281/1 82/282/1 76/283/1 193/284/1
f 205/281/1 204/282/1 193/283/1 194/284/1
f 206/301/1 205/302/1 194/303/1 195/304/1
f 207/273/1 206/274/1 195/275/1 196/276/1
f 208/273/1 207/274/1 196/275/1 197/276/1
f 209/285/1 208/286/1 197/287/1 198/288/1
f 210/269/1 209/270/1 198/271/1 199/272/1
f 211/273/1 210/274/1 199/275/1 200/276/1
f 212/313/1 211/314/1 200/315/1 201/316/1
f 213/309/1 212/310/1 201/311/1 202/312/1
f 214/293/1 213/294/1 202/295/1 203/296/1
f 84/269/1 214/270/1 203/271/1 78/272/1
f 215/301/1 88/302/1 82/303/1 204/304/1
f 216/293/1 215/294/1 204/295/1 205/296/1
f 217/273/1 216/274/1 205/275/1 206/276/1
f 218/277/1 217/278/1 206/279/1 207/280/1
f 219/305/1 218/306/1 207/307/1 208/308/1
f 220/309/1 219/310/1 208/311/1 209/312/1
f 221/277/1 220/278/1 209/279/1 210/280/1
f 222/305/1 221/306/1 210/307/1 211/308/1
f 223/309/1 222/310/1 211/311/1 212/312/1
f 224/277/1 223/278/1 212/279/1 213/280/1
f 225/277/1 224/278/1 213/279/1 214/280/1
f 90/309/1 225/310/1 214/311/1 84/312/1
f 226/305/1 94/306/1 88/307/1 215/308/1
f 227/305/1 226/306/1 215/307/1 216/308/1
f 228/301/1 227/302/1 216/303/1 217/304/1
f 229/269/1 228/270/1 217/271/1 218/272/1
f 230/293/1 229/294/1 218/295/1 219/296/1
f 231/273/1 230/274/1 219/275/1 220/276/1
f 232/277/1 231/278/1 220/279/1 221/280/1
f 233/285/1 232/286/1 221/287/1 222/288/1
f 234/309/1 233/310/1 222/311/1 223/312/1
f 235/281/1 234/282/1 223/283/1 224/284/1
f 236/309/1 235/310/1 224/311/1 225/312/1
f 96/313/1 236/314/1 225/315/1 90/316/1
f 108/285/1 100/286/1 94/287/1 226/288/1
f 110/273/1 108/274/1 226/275/1 227/276/1
f 112/281/1 110/282/1 227/283/1 228/284/1
f 114/269/1 112/270/1 228/271/1 229/272/1
f 116/285/1 114/286/1 229/287/1 230/288/1
f 118/301/1 116/302/1 230/303/1 231/304/1
f 120/301/1 118/302/1 231/303/1 232/304/1
f 122/281/1 120/282/1 232/283/1 233/284/1
f 124/273/1 122/274/1 233/275/1 234/276/1
f 126/285/1 124/286/1 234/287/1 235/288/1
f 128/297/1 126/298/1 235/299/1 236/300/1
f 102/285/1 128/286/1 236/287/1 96/288/1

g mesh_0004
f 216/317/1 215/318/1 204/319/1 205/320/1
f 217/321/1 216/322/1 205/323/1 206/324/1
f 227/325/1 226/326/1 215/327/1 216/328/1
f 228/329/1 227/330/1 216/331/1 217/332/1

g mesh_0005
f 237/153/1 55/154/1 50/155/1 51/156/1
f 238/161/1 60/162/1 55/163/1 237/164/1
f 73/121/1 65/122/1 60/123/1 238/124/1

